<?xml version="1.0" standalone="no"?>
<!DOCTYPE svg PUBLIC "-//W3C//DTD SVG 20010904//EN"
 "http://www.w3.org/TR/2001/REC-SVG-20010904/DTD/svg10.dtd">
<svg version="1.0" xmlns="http://www.w3.org/2000/svg"
 width="300.000000pt" height="300.000000pt" viewBox="0 0 300.000000 300.000000"
 preserveAspectRatio="xMidYMid meet">
<metadata>
Created by potrace 1.14, written by Peter Selinger 2001-2017
</metadata>
<g transform="translate(0.000000,300.000000) scale(0.100000,-0.100000)"
fill="#000000" stroke="none">
<path d="M924 2971 c-183 -83 -269 -412 -189 -721 48 -186 160 -350 280 -410
72 -36 174 -35 230 1 132 86 205 264 200 487 -1 59 -5 118 -8 132 -9 36 -18
78 -19 87 -2 38 -82 217 -114 254 -8 8 -14 19 -14 23 0 19 -119 121 -165 142
-62 29 -143 31 -201 5z"/>
<path d="M2048 2927 c-58 -17 -119 -56 -180 -118 -52 -52 -128 -167 -128 -193
0 -9 -3 -16 -8 -16 -7 0 -58 -133 -68 -180 -26 -123 -27 -277 -3 -376 28 -114
98 -217 167 -246 46 -19 147 -18 203 2 49 18 67 29 101 60 9 8 29 26 44 40
105 96 199 288 228 463 15 88 13 244 -4 308 -28 103 -99 205 -172 244 -39 21
-126 27 -180 12z"/>
<path d="M193 2080 c-84 -40 -146 -126 -173 -238 -12 -51 -9 -211 4 -275 14
-60 75 -206 96 -227 3 -3 12 -18 20 -35 20 -41 139 -156 181 -176 95 -45 120
-52 191 -51 127 2 230 104 263 262 49 229 -64 527 -254 671 -111 85 -238 111
-328 69z"/>
<path d="M2633 1890 c-4 -4 -26 -12 -49 -19 -93 -30 -210 -140 -279 -264 -30
-55 -75 -169 -80 -207 -2 -14 -7 -36 -10 -50 -3 -14 -5 -56 -5 -95 1 -38 1
-78 1 -87 0 -10 3 -18 7 -18 4 0 7 -14 8 -30 2 -40 47 -129 87 -170 59 -61
146 -84 244 -67 165 30 350 241 414 472 18 66 21 98 17 195 -3 100 -8 123 -32
173 -32 68 -85 125 -141 151 -39 19 -166 30 -182 16z"/>
<path d="M1438 1435 c-2 -2 -20 -6 -41 -9 -110 -17 -283 -130 -432 -282 -64
-65 -145 -155 -145 -161 0 -2 -22 -31 -49 -66 -94 -120 -201 -305 -231 -402
-7 -22 -16 -44 -20 -50 -5 -5 -11 -23 -14 -40 -3 -16 -10 -50 -15 -73 -12 -60
-6 -153 12 -189 48 -92 193 -159 352 -162 48 -1 174 12 225 23 14 3 34 8 45
10 11 2 40 9 65 16 25 7 52 13 61 15 9 2 47 12 85 23 110 32 183 44 233 39 47
-6 148 -34 166 -46 14 -10 110 -47 173 -67 78 -25 210 -16 278 18 83 42 185
133 204 183 25 65 18 168 -20 300 -34 115 -210 424 -305 535 -63 72 -212 218
-265 257 -68 51 -151 95 -210 112 -41 12 -145 23 -152 16z"/>
</g>
</svg>
